<?xml version="1.0" encoding="UTF-8" standalone="no" ?>
<!DOCTYPE svg PUBLIC "-//W3C//DTD SVG 1.1//EN" "http://www.w3.org/Graphics/SVG/1.1/DTD/svg11.dtd">
<svg xmlns="http://www.w3.org/2000/svg" xmlns:xlink="http://www.w3.org/1999/xlink" version="1.1" width="1200" height="628" viewBox="0 0 1200 628" xml:space="preserve">
<desc>Created with Fabric.js 5.2.4</desc>
<defs>
</defs>
<rect x="0" y="0" width="100%" height="100%" fill="transparent"></rect>
<g transform="matrix(1 0 0 1 600 314)" id="e1a31d97-71d2-4385-8722-7abcd6ac1418"  >
<rect style="stroke: none; stroke-width: 1; stroke-dasharray: none; stroke-linecap: butt; stroke-dashoffset: 0; stroke-linejoin: miter; stroke-miterlimit: 4; fill: rgb(0,0,0); fill-rule: nonzero; opacity: 1;" vector-effect="non-scaling-stroke"  x="-600" y="-314" rx="0" ry="0" width="1200" height="628" />
</g>
<g transform="matrix(Infinity NaN NaN Infinity 0 0)" id="46276043-8d29-48c9-b5ed-fc6b9c2d5eea"  >
</g>
<g transform="matrix(1.94 0 0 1.94 437.71 286.08)"  >
<path style="stroke: none; stroke-width: 1; stroke-dasharray: none; stroke-linecap: butt; stroke-dashoffset: 0; stroke-linejoin: miter; stroke-miterlimit: 4; fill: rgb(85,141,202); fill-rule: evenodd; opacity: 1;" vector-effect="non-scaling-stroke"  transform=" translate(-198.19, -89.08)" d="M 247.14 89.08 C 247.14 61.739999999999995 225.21999999999997 39.57 198.19 39.57 C 171.16000000000003 39.57 149.24 61.74 149.24 89.08 C 149.24 116.41999999999999 171.15 138.59 198.19 138.59 L 198.19 116.8 C 183.23943159358103 116.69874211486675 171.1667438379788 104.56212170663531 171.14445061552468 89.61122702281966 C 171.12215739307055 74.66033233900401 183.15859780773562 62.48776290104284 198.1087977632472 62.34192009341909 C 213.0589977187588 62.19607728579534 225.33061756690074 74.13151573104975 225.6 89.07999999999996 Z" stroke-linecap="round" />
</g>
<g transform="matrix(1.94 0 0 1.94 583.78 356.22)"  >
<path style="stroke: none; stroke-width: 1; stroke-dasharray: none; stroke-linecap: butt; stroke-dashoffset: 0; stroke-linejoin: miter; stroke-miterlimit: 4; fill: rgb(109,199,181); fill-rule: evenodd; opacity: 1;" vector-effect="non-scaling-stroke"  transform=" translate(-273.63, -125.3)" d="M 301.06 134.15 C 292.9934757233611 139.68837347098915 283.43479183126453 142.64560219791284 273.65 142.63 C 246.64999999999998 142.63 224.7 120.47 224.7 93.12 L 247.22 93.12 L 247.22 93.62 C 247.22 108.48750546544497 259.27249453455505 120.54 274.14 120.54 C 289.007505465445 120.54 301.06 108.48750546544497 301.06 93.62 L 301.06 93.12 L 301.06 93.12 L 301.06 43.61 L 322.6 43.61 L 322.6 157.49 L 301.06 157.49 Z M 322.6 157.49 C 322.6 184.83 300.69 207 273.6 207 C 246.51000000000005 207 224.65000000000003 184.82999999999998 224.65000000000003 157.49 L 247.17000000000004 157.49 L 247.17000000000004 158 C 247.17000000000004 172.86750546544496 259.2224945345551 184.92000000000002 274.09000000000003 184.92000000000002 C 288.957505465445 184.92000000000002 301.01000000000005 172.86750546544496 301.01000000000005 158 L 301.01000000000005 157.51 Z M 224.7 43.61 L 247.22 43.61 L 247.22 93.12 L 224.7 93.12 Z" stroke-linecap="round" />
</g>
<g transform="matrix(1.94 0 0 1.94 750.57 286.08)"  >
<path style="stroke: none; stroke-width: 1; stroke-dasharray: none; stroke-linecap: butt; stroke-dashoffset: 0; stroke-linejoin: miter; stroke-miterlimit: 4; fill: rgb(245,166,34); fill-rule: evenodd; opacity: 1;" vector-effect="non-scaling-stroke"  transform=" translate(-359.76, -89.08)" d="M 408.71 89.08 C 408.71 61.739999999999995 386.79999999999995 39.57 359.76 39.57 C 332.72 39.57 310.81 61.74 310.81 89.08 C 310.81 116.41999999999999 332.73 138.59 359.76 138.59 L 359.76 116.8 C 344.80943159358105 116.69874211486673 332.7367438379788 104.56212170663528 332.7144506155247 89.61122702281963 C 332.6921573930706 74.66033233900399 344.72859780773564 62.48776290104283 359.67879776324725 62.34192009341909 C 374.62899771875885 62.196077285795354 386.9006175669008 74.13151573104977 387.17 89.07999999999998 Z" stroke-linecap="round" />
</g>
<g transform="matrix(1.94 0 0 1.94 1120.05 138.12)"  >
<path style="stroke: none; stroke-width: 1; stroke-dasharray: none; stroke-linecap: butt; stroke-dashoffset: 0; stroke-linejoin: miter; stroke-miterlimit: 4; fill: rgb(241,90,90); fill-rule: evenodd; opacity: 1;" vector-effect="non-scaling-stroke"  transform=" translate(-550.57, -12.67)" d="M 550.57 12.67" stroke-linecap="round" />
</g>
<g transform="matrix(1.94 0 0 1.94 924.92 244.18)"  >
<path style="stroke: none; stroke-width: 1; stroke-dasharray: none; stroke-linecap: butt; stroke-dashoffset: 0; stroke-linejoin: miter; stroke-miterlimit: 4; fill: rgb(241,90,90); fill-rule: evenodd; opacity: 1;" vector-effect="non-scaling-stroke"  transform=" translate(-449.8, -67.44)" d="M 449.8 67.44" stroke-linecap="round" />
</g>
<g transform="matrix(1.94 0 0 1.94 898.4 286.08)"  >
<path style="stroke: none; stroke-width: 1; stroke-dasharray: none; stroke-linecap: butt; stroke-dashoffset: 0; stroke-linejoin: miter; stroke-miterlimit: 4; fill: rgb(152,76,157); fill-rule: evenodd; opacity: 1;" vector-effect="non-scaling-stroke"  transform=" translate(-436.11, -89.08)" d="M 408.67 48.06 C 416.7362064335406 42.519805334034466 426.2944327095956 39.55923105152053 436.08000000000004 39.57 C 463.08000000000004 39.57 485.08000000000004 61.74 485.08000000000004 89.08 L 462.51 89.08 C 462.51 88.92 462.51 88.75 462.51 88.59 C 462.6977749952563 78.84693826522954 457.6073631426199 69.7625347718813 449.19952893167385 64.8359908212363 C 440.7916947207278 59.90944687059128 430.3783052792722 59.90944687059128 421.9704710683261 64.8359908212363 C 413.5626368573801 69.7625347718813 408.4722250047437 78.84693826522954 408.65999999999997 88.59000000000002 C 408.65999999999997 88.75 408.65999999999997 88.92 408.65999999999997 89.08 L 408.65999999999997 89.08 L 408.65999999999997 138.59 L 387.13 138.59 L 387.13 39.59 L 408.67 43.59 Z M 485 138.59 L 462.52 138.59 L 462.52 89.08 L 485 89.08 Z" stroke-linecap="round" />
</g>
<g transform="matrix(1.94 0 0 1.94 996.21 247.77)"  >
<polygon style="stroke: none; stroke-width: 1; stroke-dasharray: none; stroke-linecap: butt; stroke-dashoffset: 0; stroke-linejoin: miter; stroke-miterlimit: 4; fill: rgb(241,90,90); fill-rule: nonzero; opacity: 1;" vector-effect="non-scaling-stroke"  points="9.74,69.3 -9.74,69.3 -9.74,-69.3 9.74,-69.3 9.74,4.47 9.74,69.3 " />
</g>
<g transform="matrix(1.94 0 0 1.94 1080.55 284.23)"  >
<polygon style="stroke: none; stroke-width: 1; stroke-dasharray: none; stroke-linecap: butt; stroke-dashoffset: 0; stroke-linejoin: miter; stroke-miterlimit: 4; fill: rgb(241,90,90); fill-rule: nonzero; opacity: 1;" vector-effect="non-scaling-stroke"  points="3.45,-50.47 33.83,-50.47 -5.45,-11.84 33.83,50.47 9.49,50.47 -20.56,2.33 -33.82,14.75 -33.82,-14.36 3.45,-50.47 " />
</g>
<g transform="matrix(1.94 0 0 1.94 277.98 289.1)"  >
<path style="stroke: none; stroke-width: 1; stroke-dasharray: none; stroke-linecap: butt; stroke-dashoffset: 0; stroke-linejoin: miter; stroke-miterlimit: 4; fill: rgb(216,217,216); fill-rule: evenodd; opacity: 1;" vector-effect="non-scaling-stroke"  transform=" translate(-115.7, -90.64)" d="M 90.15 51.67 C 97.61274915870305 46.42013606029627 106.51565500725425 43.605015576211414 115.63999999999999 43.60999999999999 C 140.79 43.61 161.17000000000002 64.61 161.17000000000002 90.61 L 140.22 90.61 C 140.22 90.46 140.22 90.3 140.22 90.14 C 140.22 75.86 129.01 64.28999999999999 115.22 64.28999999999999 C 101.43 64.28999999999999 90.22 75.85999999999999 90.22 90.13999999999999 L 90.22 90.60999999999999 L 90.22 90.60999999999999 L 90.22 137.60999999999999 L 70.22 137.60999999999999 L 80.09 60 L 90.15 51.64 Z M 161.15 137.67000000000002 L 140.23 137.67000000000002 L 140.23 90.67000000000002 L 161.17 90.67000000000002 Z" stroke-linecap="round" />
</g>
<g transform="matrix(1.94 0 0 1.94 142.08 289.1)"  >
<path style="stroke: none; stroke-width: 1; stroke-dasharray: none; stroke-linecap: butt; stroke-dashoffset: 0; stroke-linejoin: miter; stroke-miterlimit: 4; fill: rgb(216,217,216); fill-rule: evenodd; opacity: 1;" vector-effect="non-scaling-stroke"  transform=" translate(-45.52, -90.64)" d="M 20 51.67 C 27.467004720059794 46.421130171345 36.37274522862299 43.60621768118739 45.5 43.61000000000001 C 70.64 43.61 91.03 64.61 91.03 90.61 L 70.03 90.61 L 70.03 90.14 C 70.03 75.86 58.82 64.28999999999999 45.03 64.28999999999999 C 31.240000000000002 64.28999999999999 20 75.87 20 90.15 C 20 90.31 20 90.47 20 90.62 L 20 90.62 L 20 137.62 L 0 137.62 L 0 43.620000000000005 L 20 47.46000000000001 Z M 91 137.67000000000002 L 70 137.67000000000002 L 70 90.67000000000002 L 91 90.67000000000002 Z" stroke-linecap="round" />
</g>
</svg>