<svg id="Layer_1" data-name="Layer 1" xmlns="http://www.w3.org/2000/svg" viewBox="0 0 564 207"><defs><style>.cls-1{fill:#558dca;}.cls-1,.cls-2,.cls-3,.cls-4,.cls-5,.cls-7{fill-rule:evenodd;}.cls-2{fill:#6dc7b5;}.cls-3{fill:#f5a622;}.cls-4,.cls-6{fill:#f15a5a;}.cls-5{fill:#984c9d;}.cls-7{fill:#d8d9d8;}</style></defs><title>logomayank</title><path id="A" class="cls-1" d="M247.14,89.08c0-27.34-21.92-49.51-48.95-49.51s-48.95,22.17-48.95,49.51,21.91,49.51,48.95,49.51V116.8A27.23,27.23,0,1,1,225.6,89.08Z"/><path id="Y" class="cls-2" d="M301.06,134.15a48.29,48.29,0,0,1-27.41,8.48c-27,0-48.95-22.16-48.95-49.51h22.52v.5a26.92,26.92,0,1,0,53.84,0v-.5h0V43.61H322.6V157.49H301.06Zm21.54,23.34c0,27.34-21.91,49.51-49,49.51s-48.95-22.17-48.95-49.51h22.52V158a26.92,26.92,0,1,0,53.84,0v-.49ZM224.7,43.61h22.52V93.12H224.7Z"/><path id="A-2" data-name="A" class="cls-3" d="M408.71,89.08c0-27.34-21.91-49.51-48.95-49.51s-48.95,22.17-48.95,49.51,21.92,49.51,48.95,49.51V116.8a27.23,27.23,0,1,1,27.41-27.72Z"/><path class="cls-4" d="M550.57,12.67"/><path class="cls-4" d="M449.8,67.44"/><path id="Y-2" data-name="Y" class="cls-5" d="M408.67,48.06a48.32,48.32,0,0,1,27.41-8.49c27,0,49,22.17,49,49.51H462.51c0-.16,0-.33,0-.49a26.93,26.93,0,1,0-53.85,0c0,.16,0,.33,0,.49h0v49.51H387.13v-99l21.54,4ZM485,138.59H462.52V89.08H485Z"/><polygon class="cls-6" points="496.35 138.59 476.88 138.59 476.88 0 496.35 0 496.35 73.76 496.35 138.59"/><polygon class="cls-6" points="533.62 37.66 564 37.66 524.72 76.28 564 138.59 539.66 138.59 509.61 90.45 496.35 102.88 496.35 73.76 533.62 37.66"/><path id="Y-3" data-name="Y" class="cls-7" d="M90.15,51.67a44.26,44.26,0,0,1,25.49-8.06c25.15,0,45.53,21,45.53,47H140.22c0-.15,0-.31,0-.47,0-14.28-11.21-25.85-25-25.85s-25,11.57-25,25.85v.47h0v47h-20L80.09,60l10.06-8.36Zm71,86H140.23v-47h20.94Z"/><path id="Y-4" data-name="Y" class="cls-7" d="M20,51.67a44.31,44.31,0,0,1,25.5-8.06c25.14,0,45.53,21,45.53,47h-21v-.47c0-14.28-11.21-25.85-25-25.85S20,75.87,20,90.15c0,.16,0,.32,0,.47h0v47H0v-94l20,3.84Zm71,86h-21v-47h21Z"/></svg>